<svg xmlns="http://www.w3.org/2000/svg" version="1.1" xmlns:xlink="http://www.w3.org/1999/xlink" xmlns:svgjs="http://svgjs.dev/svgjs" width="248" height="233" preserveAspectRatio="none" viewBox="0 0 1440 560"><g mask="url(&quot;#SvgjsMask1756&quot;)" fill="none"><use xlink:href="#SvgjsG1769" transform="translate(0, 0)" fill="rgba(226, 138, 10, 1)"></use><use xlink:href="#SvgjsG1769" transform="translate(0, 468.00000000000006)" fill="rgba(226, 138, 10, 1)"></use><use xlink:href="#SvgjsG1769" transform="translate(468.00000000000006, 0)" fill="rgba(226, 138, 10, 1)"></use><use xlink:href="#SvgjsG1769" transform="translate(468.00000000000006, 468.00000000000006)" fill="rgba(226, 138, 10, 1)"></use><use xlink:href="#SvgjsG1769" transform="translate(936.0000000000001, 0)" fill="rgba(226, 138, 10, 1)"></use><use xlink:href="#SvgjsG1769" transform="translate(936.0000000000001, 468.00000000000006)" fill="rgba(226, 138, 10, 1)"></use><use xlink:href="#SvgjsG1769" transform="translate(1404.0000000000002, 0)" fill="rgba(226, 138, 10, 1)"></use><use xlink:href="#SvgjsG1769" transform="translate(1404.0000000000002, 468.00000000000006)" fill="rgba(226, 138, 10, 1)"></use></g><defs><mask id="SvgjsMask1756"><rect width="1440" height="560" fill="#ffffff"></rect></mask><g id="SvgjsG1764"><path d="M1.316 13.81h14.019V3.175H1.316v10.635z m12.302-9.643L9.143 8.635c-0.457 0.459-1.269 0.448-1.735-0.018l-4.444-4.45h10.648z m-11.31 0.693l3.626 3.638-3.637 3.644 0.007-7.278z m0.654 7.97l3.641-3.635 0.156 0.149c0.86 0.818 2.228 0.818 3.049 0l0.156-0.156 3.663 3.644h-10.667z m11.353-0.693L10.677 8.501 14.311 4.862V12.142z" fill-rule="evenodd"></path></g><g id="SvgjsG1761"><path d="M0 6.205v9.789h15.439V6.205H0z m8.544 4.62V13.641h-1.669V10.824c-0.349-0.257-0.576-0.669-0.576-1.136 0-0.779 0.632-1.411 1.412-1.41s1.411 0.632 1.411 1.41c0 0.467-0.227 0.879-0.576 1.136l-0.002 0.001z"></path><path d="M5.254 0.572c-3.126 1.327-4.589 4.949-3.262 8.075l2.342-0.995L13.328 3.834C12.001 0.709 8.379-0.754 5.254 0.572z m-0.938 7.088c-0.782-1.844 0.081-3.98 1.925-4.762s3.98 0.08 4.762 1.924L4.317 7.66l-0.001 0z"></path></g><g id="SvgjsG1768"><path d="M7.493 4.681c1.279 0 2.312-1.051 2.312-2.343C9.805 1.045 8.772 0 7.493 0S5.18 1.045 5.18 2.338c0 1.291 1.034 2.342 2.313 2.343z m2.249 0.569c1.058 0.038 1.503 0.894 1.503 0.895l3.415 4.737a1.331 1.331 0 0 1 0.224 0.745c0 0.737-0.59 1.335-1.319 1.334-0.174 0-0.333-0.039-0.484-0.096l-2.061-0.582v2.079H3.864V12.283l-2.061 0.581a1.308 1.308 0 0 1-0.485 0.097C0.589 12.962 0 12.363 0 11.626c0-0.278 0.082-0.535 0.229-0.745l3.413-4.736s0.448-0.857 1.501-0.895H9.742zM7.443 12.91l2.67-0.897-0.058-0.012c-1.844-0.547-1.127-3.009 0.712-2.459l0.253 0.089v-2.779l-3.577 1.18-3.579-1.18V9.63l0.252-0.089c1.843-0.55 2.561 1.913 0.717 2.459l-0.06 0.013 2.67 0.897zM14.793 16c0.183 0 0.33-0.148 0.33-0.333a0.33 0.33 0 0 0-0.33-0.333H0.352c-0.179 0-0.329 0.147-0.329 0.333 0 0.185 0.15 0.333 0.329 0.333h14.441z"></path></g><g id="SvgjsG1767"><path d="M14.885 8.725h-1.479v5.687c0.01 1.007 1.48 1.007 1.479 0V8.725z m-1.69 0h-1.479v5.687c0.006 1 1.476 1 1.479 0V8.725z m-3.593 0h-1.479v5.687c0.009 1.007 1.48 1.007 1.479 0V8.725z m-1.691 0h-1.479v5.687c0.006 1 1.477 1 1.479 0V8.725z m-3.592 0h-1.479v5.687c0.009 1.007 1.48 1.007 1.479 0V8.725z m-1.69 0h-1.479v5.687c0.005 1 1.477 1 1.479 0V8.725z"></path><path d="M15.828 8.303a0.57 0.57 0 0 1-0.578 0.577s-3.866 0.005-3.88 0a0.576 0.576 0 0 1-0.576-0.577V4.096a0.793 0.793 0 0 1 0.806-0.807c-0.005-0.005 3.419 0 3.418 0a0.792 0.792 0 0 1 0.808 0.807v4.206h0.001zM13.329 2.944c0.606 0 1.099-0.494 1.095-1.096A1.1 1.1 0 0 0 13.329 0.734a1.119 1.119 0 0 0-1.114 1.114 1.113 1.113 0 0 0 1.114 1.096z m-2.785 5.359a0.567 0.567 0 0 1-0.576 0.577s-3.866 0.005-3.881 0a0.576 0.576 0 0 1-0.576-0.577V4.096a0.794 0.794 0 0 1 0.807-0.807c-0.005-0.005 3.419 0 3.419 0a0.791 0.791 0 0 1 0.807 0.807v4.206zM8.047 2.944c0.605 0 1.099-0.494 1.094-1.096A1.1 1.1 0 0 0 8.047 0.734a1.12 1.12 0 0 0-1.115 1.114 1.114 1.114 0 0 0 1.114 1.096z m-2.787 5.359a0.568 0.568 0 0 1-0.576 0.577s-3.866 0.005-3.88 0a0.576 0.576 0 0 1-0.576-0.577V4.096a0.793 0.793 0 0 1 0.807-0.808c-0.005-0.005 3.42 0 3.419 0a0.791 0.791 0 0 1 0.807 0.807v4.207zM2.763 2.944c0.606 0 1.1-0.494 1.096-1.096A1.1 1.1 0 0 0 2.763 0.734a1.118 1.118 0 0 0-1.113 1.114A1.112 1.112 0 0 0 2.763 2.944z"></path></g><g id="SvgjsG1762"><path d="M11.974 14.95h-0.243c-0.142-0.162-0.195-0.364-0.152-0.614 0.071-0.413 0.364-0.754 0.504-0.803l-0.002-0.005a0.525 0.525 0 0 0 0.346-0.491l0.01-10.776c0-0.289-0.234-0.525-0.517-0.527 0 0-2.157-0.002-2.749-0.006l0.003-1.204c0-0.213-0.123-0.403-0.318-0.485a0.517 0.517 0 0 0-0.564 0.11L4.684 3.773C4.051 4.41 3.55 5.613 3.549 6.518L3.52 14.057c-0.002 1.054 0.844 1.918 1.892 1.923l6.56 0.02c0.285 0 0.518-0.235 0.518-0.521v-0.002c0-0.291-0.229-0.525-0.516-0.526M11.398 2.784c0 0.899-0.008 8.829-0.01 9.73h-5.912l3.702-3.137-0.007-6.597c0.336 0.002 1.916 0.004 2.227 0.004M4.557 14.06s0.002-0.434 0.002-0.498H10.75c-0.089 0.19-0.16 0.391-0.194 0.594-0.049 0.28-0.024 0.542 0.038 0.79l-5.179-0.016c-0.474 0-0.858-0.389-0.858-0.87"></path></g><g id="SvgjsG1759"><path d="M3.044 12.188V8.93c0-2.836 2.475-5.244 5.463-5.245 3.022-0.004 5.465 2.352 5.465 5.245v3.258h1.351V8.93C15.332 5.276 12.27 2.325 8.51 2.325 4.777 2.325 1.689 5.333 1.689 8.93v3.258h1.355z"></path><path d="M5.463 14.702l-1.781 0.006V9.593h1.785c0.921 2.372 0 5.111 0 5.111m6.049-5.109H13.298V14.702l-1.783 0.006c-0.921-2.373 0-5.113 0-5.113"></path></g><g id="SvgjsG1757"><path d="M15.828 7.44l-1.288-1.3H6.996C6.352 5.004 5.141 4.237 3.752 4.24 1.681 4.236 0.004 5.93 0 8.016c0.005 2.091 1.681 3.785 3.751 3.788 1.386-0.002 2.594-0.767 3.24-1.9h1.517l1.202-1.202 0.92 0.92 0.882-0.883 0.908 0.906 0.919-0.919 0.919 0.919 1.57-1.568c0.226-0.236 0.233-0.402 0-0.637zM2.109 9.009c-0.553-0.005-0.998-0.455-0.993-1.006-0.005-0.558 0.44-1.008 0.993-1.005 0.544-0.003 0.989 0.447 0.993 1.005-0.004 0.55-0.449 1-0.993 1.006z"></path></g><g id="SvgjsG1766"><path d="M6.498 9.304L12.139 3.663l1.565 1.566-5.641 5.641z"></path><path d="M6.8 0.457h2.541v8.028H6.8z"></path><path d="M8.072 10.876L2.429 5.238l1.563-1.566L9.636 9.313zM1.2 13.277h13.733v2.266H1.2z"></path><path d="M0.733 9.143h2.267v6.4h-2.267z m12.267 0h2.267v6.4h-2.267z"></path></g><g id="SvgjsG1765"><path d="M16.012 2.226H8.034V0.013L16.012 0.012z"></path><path d="M7.732 6.485l5.676-5.676 1.797 1.796-5.676 5.678z"></path><path d="M15.997 0.014l0.003 7.978-2.212 0.001-0.003-7.979zM0.4 3.133h2.267v11.6H0.4z m11.132 7.008h2.267V15.067h-2.267z"></path><path d="M0.4 2.226h5.421v2.266H0.4zM0.4 12.8h13.399v2.267H0.4z"></path></g><g id="SvgjsG1760"><path d="M15.233 9.431c0.295 0 0.569-0.239 0.61-0.532 0 0 0.056-0.411 0.056-0.899s-0.056-0.899-0.056-0.899c-0.041-0.292-0.315-0.531-0.61-0.53h-1.524c-0.295 0-0.602-0.188-0.681-0.418s-0.188-0.967 0.021-1.176l1.078-1.077c0.209-0.209 0.225-0.565 0.036-0.792l-1.268-1.268c-0.227-0.189-0.583-0.173-0.792 0.036l-1.078 1.077c-0.208 0.209-0.556 0.293-0.772 0.187s-0.822-0.552-0.821-0.847V0.767c0-0.295-0.239-0.569-0.531-0.61 0 0-0.411-0.057-0.9-0.056s-0.899 0.057-0.899 0.056c-0.293 0.04-0.532 0.315-0.532 0.61v1.524c0 0.295-0.188 0.601-0.418 0.681s-0.967 0.188-1.176-0.021l-1.078-1.078C3.689 1.665 3.333 1.649 3.107 1.837l-1.268 1.268c-0.189 0.227-0.173 0.583 0.036 0.792l1.077 1.078c0.209 0.209 0.293 0.556 0.187 0.772s-0.552 0.822-0.847 0.822H0.767c-0.295 0-0.569 0.239-0.61 0.531 0 0-0.057 0.411-0.056 0.899s0.057 0.899 0.056 0.9c0.04 0.293 0.315 0.532 0.61 0.532h1.525c0.295 0 0.601 0.188 0.681 0.417 0.079 0.23 0.188 0.967-0.02 1.176l-1.078 1.077C1.667 12.311 1.651 12.667 1.84 12.893l1.267 1.268c0.227 0.189 0.583 0.173 0.792-0.036l1.077-1.077c0.209-0.208 0.556-0.292 0.772-0.187s0.821 0.553 0.822 0.848v1.524c0 0.295 0.239 0.569 0.532 0.61 0 0 0.411 0.057 0.899 0.057s0.899-0.056 0.899-0.057c0.293-0.04 0.531-0.315 0.532-0.609v-1.524c0-0.295 0.188-0.602 0.418-0.681 0.23-0.079 0.967-0.188 1.176 0.021l1.077 1.077c0.209 0.209 0.565 0.225 0.792 0.036l1.268-1.267c0.189-0.227 0.173-0.583-0.036-0.792l-1.078-1.077c-0.209-0.209-0.293-0.557-0.186-0.773 0.106-0.216 0.552-0.822 0.847-0.822h1.525zM8 10.892c-1.597 0-2.891-1.294-2.891-2.892 0-1.596 1.295-2.891 2.891-2.891S10.892 6.404 10.892 8 9.597 10.892 8 10.892z"></path></g><g id="SvgjsG1763"><path d="M3.755 2.315h2.494v11.128h-2.494zM13.507 0.537H16v11.261h-2.493z"></path><path d="M4.451 5.556l-0.696-3.24L16 0v3.167z"></path><path d="M0 13.443a3.124 2.606 0 1 0 6.249 0 3.124 2.606 0 1 0-6.249 0"></path><path d="M9.751 11.798a3.124 2.606 0 1 0 6.249 0 3.124 2.606 0 1 0-6.249 0"></path></g><g id="SvgjsG1758"><path d="M8 12.733c-2.61 0-4.733-2.123-4.733-4.733 0-2.61 2.123-4.733 4.733-4.733 1.816 0 3.396 1.029 4.189 2.533h3.017c-0.941-3.087-3.81-5.333-7.205-5.333-4.161 0-7.533 3.373-7.534 7.533 0 4.16 3.373 7.533 7.534 7.533 2.169 0 4.121-0.918 5.496-2.384l-2.044-1.915C10.59 12.156 9.362 12.733 8.002 12.733z"></path><path d="M16 0v6.045M12.189 5.8h3.016"></path><path d="M16 2.911l-0.001 6.268-6.022-1.737z"></path></g><g id="SvgjsG1769"><use xlink:href="#SvgjsG1757" transform="translate(0, 0) scale(1.8)" fill="rgba(226, 138, 10, 1)"></use><use xlink:href="#SvgjsG1758" transform="translate(0, 46.800000000000004) scale(1.8)" fill="rgba(226, 138, 10, 1)"></use><use xlink:href="#SvgjsG1759" transform="translate(0, 93.60000000000001) scale(1.8)" fill="rgba(226, 138, 10, 1)"></use><use xlink:href="#SvgjsG1760" transform="translate(0, 140.4) scale(1.8)" fill="rgba(226, 138, 10, 1)"></use><use xlink:href="#SvgjsG1761" transform="translate(0, 187.20000000000002) scale(1.8)" fill="rgba(226, 138, 10, 1)"></use><use xlink:href="#SvgjsG1762" transform="translate(0, 234.00000000000003) scale(1.8)" fill="rgba(226, 138, 10, 1)"></use><use xlink:href="#SvgjsG1761" transform="translate(0, 280.8) scale(1.8)" fill="rgba(226, 138, 10, 1)"></use><use xlink:href="#SvgjsG1763" transform="translate(0, 327.6) scale(1.8)" fill="rgba(226, 138, 10, 1)"></use><use xlink:href="#SvgjsG1759" transform="translate(0, 374.40000000000003) scale(1.8)" fill="rgba(226, 138, 10, 1)"></use><use xlink:href="#SvgjsG1764" transform="translate(0, 421.20000000000005) scale(1.8)" fill="rgba(226, 138, 10, 1)"></use><use xlink:href="#SvgjsG1757" transform="translate(46.800000000000004, 0) scale(1.8)" fill="rgba(226, 138, 10, 1)"></use><use xlink:href="#SvgjsG1763" transform="translate(46.800000000000004, 46.800000000000004) scale(1.8)" fill="rgba(226, 138, 10, 1)"></use><use xlink:href="#SvgjsG1761" transform="translate(46.800000000000004, 93.60000000000001) scale(1.8)" fill="rgba(226, 138, 10, 1)"></use><use xlink:href="#SvgjsG1765" transform="translate(46.800000000000004, 140.4) scale(1.8)" fill="rgba(226, 138, 10, 1)"></use><use xlink:href="#SvgjsG1766" transform="translate(46.800000000000004, 187.20000000000002) scale(1.8)" fill="rgba(226, 138, 10, 1)"></use><use xlink:href="#SvgjsG1764" transform="translate(46.800000000000004, 234.00000000000003) scale(1.8)" fill="rgba(226, 138, 10, 1)"></use><use xlink:href="#SvgjsG1758" transform="translate(46.800000000000004, 280.8) scale(1.8)" fill="rgba(226, 138, 10, 1)"></use><use xlink:href="#SvgjsG1764" transform="translate(46.800000000000004, 327.6) scale(1.8)" fill="rgba(226, 138, 10, 1)"></use><use xlink:href="#SvgjsG1764" transform="translate(46.800000000000004, 374.40000000000003) scale(1.8)" fill="rgba(226, 138, 10, 1)"></use><use xlink:href="#SvgjsG1767" transform="translate(46.800000000000004, 421.20000000000005) scale(1.8)" fill="rgba(226, 138, 10, 1)"></use><use xlink:href="#SvgjsG1758" transform="translate(93.60000000000001, 0) scale(1.8)" fill="rgba(226, 138, 10, 1)"></use><use xlink:href="#SvgjsG1757" transform="translate(93.60000000000001, 46.800000000000004) scale(1.8)" fill="rgba(226, 138, 10, 1)"></use><use xlink:href="#SvgjsG1766" transform="translate(93.60000000000001, 93.60000000000001) scale(1.8)" fill="rgba(226, 138, 10, 1)"></use><use xlink:href="#SvgjsG1766" transform="translate(93.60000000000001, 140.4) scale(1.8)" fill="rgba(226, 138, 10, 1)"></use><use xlink:href="#SvgjsG1761" transform="translate(93.60000000000001, 187.20000000000002) scale(1.8)" fill="rgba(226, 138, 10, 1)"></use><use xlink:href="#SvgjsG1757" transform="translate(93.60000000000001, 234.00000000000003) scale(1.8)" fill="rgba(226, 138, 10, 1)"></use><use xlink:href="#SvgjsG1758" transform="translate(93.60000000000001, 280.8) scale(1.8)" fill="rgba(226, 138, 10, 1)"></use><use xlink:href="#SvgjsG1768" transform="translate(93.60000000000001, 327.6) scale(1.8)" fill="rgba(226, 138, 10, 1)"></use><use xlink:href="#SvgjsG1761" transform="translate(93.60000000000001, 374.40000000000003) scale(1.8)" fill="rgba(226, 138, 10, 1)"></use><use xlink:href="#SvgjsG1760" transform="translate(93.60000000000001, 421.20000000000005) scale(1.8)" fill="rgba(226, 138, 10, 1)"></use><use xlink:href="#SvgjsG1765" transform="translate(140.4, 0) scale(1.8)" fill="rgba(226, 138, 10, 1)"></use><use xlink:href="#SvgjsG1765" transform="translate(140.4, 46.800000000000004) scale(1.8)" fill="rgba(226, 138, 10, 1)"></use><use xlink:href="#SvgjsG1768" transform="translate(140.4, 93.60000000000001) scale(1.8)" fill="rgba(226, 138, 10, 1)"></use><use xlink:href="#SvgjsG1765" transform="translate(140.4, 140.4) scale(1.8)" fill="rgba(226, 138, 10, 1)"></use><use xlink:href="#SvgjsG1759" transform="translate(140.4, 187.20000000000002) scale(1.8)" fill="rgba(226, 138, 10, 1)"></use><use xlink:href="#SvgjsG1757" transform="translate(140.4, 234.00000000000003) scale(1.8)" fill="rgba(226, 138, 10, 1)"></use><use xlink:href="#SvgjsG1759" transform="translate(140.4, 280.8) scale(1.8)" fill="rgba(226, 138, 10, 1)"></use><use xlink:href="#SvgjsG1758" transform="translate(140.4, 327.6) scale(1.8)" fill="rgba(226, 138, 10, 1)"></use><use xlink:href="#SvgjsG1760" transform="translate(140.4, 374.40000000000003) scale(1.8)" fill="rgba(226, 138, 10, 1)"></use><use xlink:href="#SvgjsG1764" transform="translate(140.4, 421.20000000000005) scale(1.8)" fill="rgba(226, 138, 10, 1)"></use><use xlink:href="#SvgjsG1760" transform="translate(187.20000000000002, 0) scale(1.8)" fill="rgba(226, 138, 10, 1)"></use><use xlink:href="#SvgjsG1764" transform="translate(187.20000000000002, 46.800000000000004) scale(1.8)" fill="rgba(226, 138, 10, 1)"></use><use xlink:href="#SvgjsG1758" transform="translate(187.20000000000002, 93.60000000000001) scale(1.8)" fill="rgba(226, 138, 10, 1)"></use><use xlink:href="#SvgjsG1758" transform="translate(187.20000000000002, 140.4) scale(1.8)" fill="rgba(226, 138, 10, 1)"></use><use xlink:href="#SvgjsG1766" transform="translate(187.20000000000002, 187.20000000000002) scale(1.8)" fill="rgba(226, 138, 10, 1)"></use><use xlink:href="#SvgjsG1767" transform="translate(187.20000000000002, 234.00000000000003) scale(1.8)" fill="rgba(226, 138, 10, 1)"></use><use xlink:href="#SvgjsG1762" transform="translate(187.20000000000002, 280.8) scale(1.8)" fill="rgba(226, 138, 10, 1)"></use><use xlink:href="#SvgjsG1763" transform="translate(187.20000000000002, 327.6) scale(1.8)" fill="rgba(226, 138, 10, 1)"></use><use xlink:href="#SvgjsG1761" transform="translate(187.20000000000002, 374.40000000000003) scale(1.8)" fill="rgba(226, 138, 10, 1)"></use><use xlink:href="#SvgjsG1760" transform="translate(187.20000000000002, 421.20000000000005) scale(1.8)" fill="rgba(226, 138, 10, 1)"></use><use xlink:href="#SvgjsG1768" transform="translate(234.00000000000003, 0) scale(1.8)" fill="rgba(226, 138, 10, 1)"></use><use xlink:href="#SvgjsG1767" transform="translate(234.00000000000003, 46.800000000000004) scale(1.8)" fill="rgba(226, 138, 10, 1)"></use><use xlink:href="#SvgjsG1767" transform="translate(234.00000000000003, 93.60000000000001) scale(1.8)" fill="rgba(226, 138, 10, 1)"></use><use xlink:href="#SvgjsG1768" transform="translate(234.00000000000003, 140.4) scale(1.8)" fill="rgba(226, 138, 10, 1)"></use><use xlink:href="#SvgjsG1760" transform="translate(234.00000000000003, 187.20000000000002) scale(1.8)" fill="rgba(226, 138, 10, 1)"></use><use xlink:href="#SvgjsG1765" transform="translate(234.00000000000003, 234.00000000000003) scale(1.8)" fill="rgba(226, 138, 10, 1)"></use><use xlink:href="#SvgjsG1768" transform="translate(234.00000000000003, 280.8) scale(1.8)" fill="rgba(226, 138, 10, 1)"></use><use xlink:href="#SvgjsG1761" transform="translate(234.00000000000003, 327.6) scale(1.8)" fill="rgba(226, 138, 10, 1)"></use><use xlink:href="#SvgjsG1764" transform="translate(234.00000000000003, 374.40000000000003) scale(1.8)" fill="rgba(226, 138, 10, 1)"></use><use xlink:href="#SvgjsG1765" transform="translate(234.00000000000003, 421.20000000000005) scale(1.8)" fill="rgba(226, 138, 10, 1)"></use><use xlink:href="#SvgjsG1767" transform="translate(280.8, 0) scale(1.8)" fill="rgba(226, 138, 10, 1)"></use><use xlink:href="#SvgjsG1757" transform="translate(280.8, 46.800000000000004) scale(1.8)" fill="rgba(226, 138, 10, 1)"></use><use xlink:href="#SvgjsG1761" transform="translate(280.8, 93.60000000000001) scale(1.8)" fill="rgba(226, 138, 10, 1)"></use><use xlink:href="#SvgjsG1765" transform="translate(280.8, 140.4) scale(1.8)" fill="rgba(226, 138, 10, 1)"></use><use xlink:href="#SvgjsG1766" transform="translate(280.8, 187.20000000000002) scale(1.8)" fill="rgba(226, 138, 10, 1)"></use><use xlink:href="#SvgjsG1757" transform="translate(280.8, 234.00000000000003) scale(1.8)" fill="rgba(226, 138, 10, 1)"></use><use xlink:href="#SvgjsG1759" transform="translate(280.8, 280.8) scale(1.8)" fill="rgba(226, 138, 10, 1)"></use><use xlink:href="#SvgjsG1759" transform="translate(280.8, 327.6) scale(1.8)" fill="rgba(226, 138, 10, 1)"></use><use xlink:href="#SvgjsG1765" transform="translate(280.8, 374.40000000000003) scale(1.8)" fill="rgba(226, 138, 10, 1)"></use><use xlink:href="#SvgjsG1765" transform="translate(280.8, 421.20000000000005) scale(1.8)" fill="rgba(226, 138, 10, 1)"></use><use xlink:href="#SvgjsG1762" transform="translate(327.6, 0) scale(1.8)" fill="rgba(226, 138, 10, 1)"></use><use xlink:href="#SvgjsG1759" transform="translate(327.6, 46.800000000000004) scale(1.8)" fill="rgba(226, 138, 10, 1)"></use><use xlink:href="#SvgjsG1758" transform="translate(327.6, 93.60000000000001) scale(1.8)" fill="rgba(226, 138, 10, 1)"></use><use xlink:href="#SvgjsG1765" transform="translate(327.6, 140.4) scale(1.8)" fill="rgba(226, 138, 10, 1)"></use><use xlink:href="#SvgjsG1761" transform="translate(327.6, 187.20000000000002) scale(1.8)" fill="rgba(226, 138, 10, 1)"></use><use xlink:href="#SvgjsG1759" transform="translate(327.6, 234.00000000000003) scale(1.8)" fill="rgba(226, 138, 10, 1)"></use><use xlink:href="#SvgjsG1767" transform="translate(327.6, 280.8) scale(1.8)" fill="rgba(226, 138, 10, 1)"></use><use xlink:href="#SvgjsG1760" transform="translate(327.6, 327.6) scale(1.8)" fill="rgba(226, 138, 10, 1)"></use><use xlink:href="#SvgjsG1764" transform="translate(327.6, 374.40000000000003) scale(1.8)" fill="rgba(226, 138, 10, 1)"></use><use xlink:href="#SvgjsG1766" transform="translate(327.6, 421.20000000000005) scale(1.8)" fill="rgba(226, 138, 10, 1)"></use><use xlink:href="#SvgjsG1768" transform="translate(374.40000000000003, 0) scale(1.8)" fill="rgba(226, 138, 10, 1)"></use><use xlink:href="#SvgjsG1763" transform="translate(374.40000000000003, 46.800000000000004) scale(1.8)" fill="rgba(226, 138, 10, 1)"></use><use xlink:href="#SvgjsG1766" transform="translate(374.40000000000003, 93.60000000000001) scale(1.8)" fill="rgba(226, 138, 10, 1)"></use><use xlink:href="#SvgjsG1758" transform="translate(374.40000000000003, 140.4) scale(1.8)" fill="rgba(226, 138, 10, 1)"></use><use xlink:href="#SvgjsG1768" transform="translate(374.40000000000003, 187.20000000000002) scale(1.8)" fill="rgba(226, 138, 10, 1)"></use><use xlink:href="#SvgjsG1768" transform="translate(374.40000000000003, 234.00000000000003) scale(1.8)" fill="rgba(226, 138, 10, 1)"></use><use xlink:href="#SvgjsG1766" transform="translate(374.40000000000003, 280.8) scale(1.8)" fill="rgba(226, 138, 10, 1)"></use><use xlink:href="#SvgjsG1766" transform="translate(374.40000000000003, 327.6) scale(1.8)" fill="rgba(226, 138, 10, 1)"></use><use xlink:href="#SvgjsG1760" transform="translate(374.40000000000003, 374.40000000000003) scale(1.8)" fill="rgba(226, 138, 10, 1)"></use><use xlink:href="#SvgjsG1766" transform="translate(374.40000000000003, 421.20000000000005) scale(1.8)" fill="rgba(226, 138, 10, 1)"></use><use xlink:href="#SvgjsG1760" transform="translate(421.20000000000005, 0) scale(1.8)" fill="rgba(226, 138, 10, 1)"></use><use xlink:href="#SvgjsG1762" transform="translate(421.20000000000005, 46.800000000000004) scale(1.8)" fill="rgba(226, 138, 10, 1)"></use><use xlink:href="#SvgjsG1762" transform="translate(421.20000000000005, 93.60000000000001) scale(1.8)" fill="rgba(226, 138, 10, 1)"></use><use xlink:href="#SvgjsG1760" transform="translate(421.20000000000005, 140.4) scale(1.8)" fill="rgba(226, 138, 10, 1)"></use><use xlink:href="#SvgjsG1764" transform="translate(421.20000000000005, 187.20000000000002) scale(1.8)" fill="rgba(226, 138, 10, 1)"></use><use xlink:href="#SvgjsG1757" transform="translate(421.20000000000005, 234.00000000000003) scale(1.8)" fill="rgba(226, 138, 10, 1)"></use><use xlink:href="#SvgjsG1761" transform="translate(421.20000000000005, 280.8) scale(1.8)" fill="rgba(226, 138, 10, 1)"></use><use xlink:href="#SvgjsG1766" transform="translate(421.20000000000005, 327.6) scale(1.8)" fill="rgba(226, 138, 10, 1)"></use><use xlink:href="#SvgjsG1760" transform="translate(421.20000000000005, 374.40000000000003) scale(1.8)" fill="rgba(226, 138, 10, 1)"></use><use xlink:href="#SvgjsG1758" transform="translate(421.20000000000005, 421.20000000000005) scale(1.8)" fill="rgba(226, 138, 10, 1)"></use></g></defs></svg>